<mxfile host="app.diagrams.net" agent="Mozilla/5.0 (X11; Linux x86_64) AppleWebKit/537.36 (KHTML, like Gecko) Chrome/126.0.0.0 Safari/537.36" version="26.0.5">
  <diagram name="Page-1" id="4fc8d65c-f3f6-feb3-4d1c-02f59d9f9886">
    <mxGraphModel dx="1434" dy="722" grid="1" gridSize="10" guides="1" tooltips="1" connect="1" arrows="1" fold="1" page="1" pageScale="1" pageWidth="826" pageHeight="1169" background="none" math="0" shadow="0">
      <root>
        <mxCell id="0" />
        <mxCell id="1" parent="0" />
        <mxCell id="2" value="Matière" style="whiteSpace=wrap;strokeWidth=2" parent="1" vertex="1">
          <mxGeometry x="36.458333333333236" y="110" width="120" height="60" as="geometry" />
        </mxCell>
        <mxCell id="5" value="Methods" style="whiteSpace=wrap;strokeWidth=2" parent="1" vertex="1">
          <mxGeometry x="36.458333333333236" y="400" width="120" height="60" as="geometry" />
        </mxCell>
        <mxCell id="8" value="DÉFAILLANCE" style="whiteSpace=wrap;strokeWidth=3" parent="1" vertex="1">
          <mxGeometry x="680" y="250" width="120" height="60" as="geometry" />
        </mxCell>
        <mxCell id="9" value="" style="edgeStyle=none;strokeWidth=4" parent="1" target="8" edge="1">
          <mxGeometry width="100" height="100" relative="1" as="geometry">
            <mxPoint x="120" y="280" as="sourcePoint" />
            <mxPoint x="240" y="230" as="targetPoint" />
          </mxGeometry>
        </mxCell>
        <mxCell id="12" value="" style="edgeStyle=none;exitX=0.5;exitY=1;strokeWidth=3" parent="1" source="2" edge="1">
          <mxGeometry width="100" height="100" relative="1" as="geometry">
            <mxPoint x="96.45833333333323" y="190" as="sourcePoint" />
            <mxPoint x="156.45833333333323" y="280" as="targetPoint" />
          </mxGeometry>
        </mxCell>
        <mxCell id="15" value="" style="edgeStyle=none;exitX=0.5;exitY=0;strokeWidth=3" parent="1" edge="1">
          <mxGeometry width="100" height="100" relative="1" as="geometry">
            <mxPoint x="96.45833333333323" y="400" as="sourcePoint" />
            <mxPoint x="156.45833333333323" y="280" as="targetPoint" />
          </mxGeometry>
        </mxCell>
        <mxCell id="19" value="" style="edgeStyle=none;endArrow=none;strokeWidth=2" parent="1" edge="1">
          <mxGeometry width="100" height="100" relative="1" as="geometry">
            <mxPoint x="106.45833333333323" y="190" as="sourcePoint" />
            <mxPoint x="166.45833333333323" y="190" as="targetPoint" />
          </mxGeometry>
        </mxCell>
        <mxCell id="26" value="" style="edgeStyle=none;endArrow=none;strokeWidth=2" parent="1" edge="1">
          <mxGeometry width="100" height="100" relative="1" as="geometry">
            <mxPoint x="66.45833333333323" y="340" as="sourcePoint" />
            <mxPoint x="126.45833333333323" y="340" as="targetPoint" />
          </mxGeometry>
        </mxCell>
        <mxCell id="37" value="" style="edgeStyle=none;endArrow=none;strokeWidth=2" parent="1" edge="1">
          <mxGeometry width="100" height="100" relative="1" as="geometry">
            <mxPoint x="106.45833333333323" y="380" as="sourcePoint" />
            <mxPoint x="166.45833333333323" y="380" as="targetPoint" />
          </mxGeometry>
        </mxCell>
        <mxCell id="47" value="" style="edgeStyle=none;endArrow=none;" parent="1" edge="1">
          <mxGeometry width="100" height="100" relative="1" as="geometry">
            <mxPoint x="116.45833333333323" y="380" as="sourcePoint" />
            <mxPoint x="136.45833333333323" y="360" as="targetPoint" />
          </mxGeometry>
        </mxCell>
        <mxCell id="50" value="" style="edgeStyle=none;endArrow=none;" parent="1" edge="1">
          <mxGeometry width="100" height="100" relative="1" as="geometry">
            <mxPoint x="96.45833333333323" y="360" as="sourcePoint" />
            <mxPoint x="116.45833333333323" y="340" as="targetPoint" />
          </mxGeometry>
        </mxCell>
        <mxCell id="52" value="" style="edgeStyle=none;endArrow=none;" parent="1" edge="1">
          <mxGeometry width="100" height="100" relative="1" as="geometry">
            <mxPoint x="96.45833333333323" y="360" as="sourcePoint" />
            <mxPoint x="116.45833333333323" y="340" as="targetPoint" />
          </mxGeometry>
        </mxCell>
        <mxCell id="120" value="Consolidation" style="text;spacingTop=-5;fontSize=8;align=center;verticalAlign=middle;points=[]" parent="1" vertex="1">
          <mxGeometry x="26.458333333333293" y="329.86000000000024" width="30" height="19.999999999999886" as="geometry" />
        </mxCell>
        <mxCell id="128" value="Cables" style="text;spacingTop=-5;fontSize=6;align=center;verticalAlign=middle;points=[]" parent="1" vertex="1">
          <mxGeometry x="74.51388888888863" y="360.9722222222223" width="30" height="19.999999999999886" as="geometry" />
        </mxCell>
        <mxCell id="137" value="    Ciment armé" style="text;spacingTop=-5;fontSize=8;align=center;verticalAlign=middle;points=[]" parent="1" vertex="1">
          <mxGeometry x="172.85166666666655" y="180.0022222222223" width="30" height="19.999999999999886" as="geometry" />
        </mxCell>
        <mxCell id="142" value="Calculs" style="text;spacingTop=-5;fontSize=8;align=center;verticalAlign=middle;points=[]" parent="1" vertex="1">
          <mxGeometry x="166.0416666666666" y="380.97222222222246" width="30" height="19.999999999999886" as="geometry" />
        </mxCell>
        <mxCell id="143" value="Materiel" style="whiteSpace=wrap;strokeWidth=2" parent="1" vertex="1">
          <mxGeometry x="260" y="109.99999999999994" width="120" height="60" as="geometry" />
        </mxCell>
        <mxCell id="144" value="Milieu" style="whiteSpace=wrap;strokeWidth=2" parent="1" vertex="1">
          <mxGeometry x="260" y="399.99999999999994" width="120" height="60" as="geometry" />
        </mxCell>
        <mxCell id="145" value="" style="edgeStyle=none;exitX=0.5;exitY=1;strokeWidth=3" parent="1" source="143" edge="1">
          <mxGeometry width="100" height="100" relative="1" as="geometry">
            <mxPoint x="320" y="189.99999999999991" as="sourcePoint" />
            <mxPoint x="380" y="279.99999999999994" as="targetPoint" />
          </mxGeometry>
        </mxCell>
        <mxCell id="146" value="" style="edgeStyle=none;exitX=0.5;exitY=0;strokeWidth=3" parent="1" edge="1">
          <mxGeometry width="100" height="100" relative="1" as="geometry">
            <mxPoint x="320.0000000000001" y="399.99999999999994" as="sourcePoint" />
            <mxPoint x="380" y="279.99999999999994" as="targetPoint" />
          </mxGeometry>
        </mxCell>
        <mxCell id="147" value="" style="edgeStyle=none;endArrow=none;strokeWidth=2" parent="1" edge="1">
          <mxGeometry width="100" height="100" relative="1" as="geometry">
            <mxPoint x="270.0000000000001" y="189.99999999999991" as="sourcePoint" />
            <mxPoint x="330" y="189.99999999999991" as="targetPoint" />
          </mxGeometry>
        </mxCell>
        <mxCell id="158" value="" style="edgeStyle=none;endArrow=none;strokeWidth=2" parent="1" edge="1">
          <mxGeometry width="100" height="100" relative="1" as="geometry">
            <mxPoint x="330" y="379.99999999999994" as="sourcePoint" />
            <mxPoint x="390" y="379.99999999999994" as="targetPoint" />
          </mxGeometry>
        </mxCell>
        <mxCell id="176" value="Cable" style="text;spacingTop=-5;fontSize=8;align=center;verticalAlign=middle;points=[]" parent="1" vertex="1">
          <mxGeometry x="240.00000000000006" y="179.99999999999997" width="30" height="19.999999999999886" as="geometry" />
        </mxCell>
        <mxCell id="203" value="Meteo" style="text;spacingTop=-5;fontSize=8;align=center;verticalAlign=middle;points=[]" parent="1" vertex="1">
          <mxGeometry x="389.58333333333337" y="370.0022222222224" width="30" height="19.999999999999886" as="geometry" />
        </mxCell>
        <mxCell id="DOGktHh-hTqbdm5BC6vs-264" value="Déformation" style="text;spacingTop=-5;fontSize=6;align=center;verticalAlign=middle;points=[]" parent="1" vertex="1">
          <mxGeometry x="126.4616666666664" y="346.9466666666667" width="30" height="19.999999999999886" as="geometry" />
        </mxCell>
        <mxCell id="DOGktHh-hTqbdm5BC6vs-267" value="MAIN D’ŒUVRE" style="whiteSpace=wrap;strokeWidth=2" parent="1" vertex="1">
          <mxGeometry x="460" y="399.99999999999994" width="120" height="60" as="geometry" />
        </mxCell>
        <mxCell id="DOGktHh-hTqbdm5BC6vs-268" value="" style="edgeStyle=none;exitX=0.5;exitY=0;strokeWidth=3" parent="1" edge="1">
          <mxGeometry width="100" height="100" relative="1" as="geometry">
            <mxPoint x="520.0000000000001" y="399.99999999999994" as="sourcePoint" />
            <mxPoint x="580" y="279.99999999999994" as="targetPoint" />
          </mxGeometry>
        </mxCell>
        <mxCell id="DOGktHh-hTqbdm5BC6vs-269" value="" style="edgeStyle=none;endArrow=none;strokeWidth=2" parent="1" edge="1">
          <mxGeometry width="100" height="100" relative="1" as="geometry">
            <mxPoint x="530" y="379.99999999999994" as="sourcePoint" />
            <mxPoint x="590" y="379.99999999999994" as="targetPoint" />
          </mxGeometry>
        </mxCell>
        <mxCell id="DOGktHh-hTqbdm5BC6vs-270" value="Formation" style="text;spacingTop=-5;fontSize=8;align=center;verticalAlign=middle;points=[]" parent="1" vertex="1">
          <mxGeometry x="600.0033333333333" y="370.0022222222224" width="30" height="19.999999999999886" as="geometry" />
        </mxCell>
        <mxCell id="DOGktHh-hTqbdm5BC6vs-272" value="" style="edgeStyle=none;endArrow=none;strokeWidth=2" parent="1" edge="1">
          <mxGeometry width="100" height="100" relative="1" as="geometry">
            <mxPoint x="550" y="340" as="sourcePoint" />
            <mxPoint x="610" y="340" as="targetPoint" />
          </mxGeometry>
        </mxCell>
        <mxCell id="DOGktHh-hTqbdm5BC6vs-274" value="&lt;font style=&quot;font-size: 8px;&quot;&gt;Compétences&lt;/font&gt;" style="text;html=1;align=center;verticalAlign=middle;resizable=0;points=[];autosize=1;strokeColor=none;fillColor=none;" parent="1" vertex="1">
          <mxGeometry x="610" y="324.86" width="70" height="30" as="geometry" />
        </mxCell>
        <mxCell id="DOGktHh-hTqbdm5BC6vs-275" value="" style="edgeStyle=none;endArrow=none;strokeWidth=2" parent="1" edge="1">
          <mxGeometry width="100" height="100" relative="1" as="geometry">
            <mxPoint x="126.45833333333323" y="230" as="sourcePoint" />
            <mxPoint x="186.45833333333323" y="230" as="targetPoint" />
          </mxGeometry>
        </mxCell>
        <mxCell id="DOGktHh-hTqbdm5BC6vs-276" value="Corrosif" style="text;spacingTop=-5;fontSize=8;align=center;verticalAlign=middle;points=[]" parent="1" vertex="1">
          <mxGeometry x="190.00166666666655" y="220.0022222222223" width="30" height="19.999999999999886" as="geometry" />
        </mxCell>
        <mxCell id="DOGktHh-hTqbdm5BC6vs-277" value="" style="edgeStyle=none;endArrow=none;strokeWidth=2" parent="1" edge="1">
          <mxGeometry width="100" height="100" relative="1" as="geometry">
            <mxPoint x="79.99833333333322" y="250" as="sourcePoint" />
            <mxPoint x="139.99833333333322" y="250" as="targetPoint" />
          </mxGeometry>
        </mxCell>
        <mxCell id="DOGktHh-hTqbdm5BC6vs-278" value="Beton" style="text;spacingTop=-5;fontSize=8;align=center;verticalAlign=middle;points=[]" parent="1" vertex="1">
          <mxGeometry x="44.51166666666656" y="240.0022222222223" width="30" height="19.999999999999886" as="geometry" />
        </mxCell>
        <mxCell id="DOGktHh-hTqbdm5BC6vs-279" value="" style="edgeStyle=none;endArrow=none;strokeWidth=2" parent="1" edge="1">
          <mxGeometry width="100" height="100" relative="1" as="geometry">
            <mxPoint x="340.0000000000001" y="209.99999999999991" as="sourcePoint" />
            <mxPoint x="400" y="209.99999999999991" as="targetPoint" />
          </mxGeometry>
        </mxCell>
        <mxCell id="DOGktHh-hTqbdm5BC6vs-280" value="Haubans" style="text;spacingTop=-5;fontSize=8;align=center;verticalAlign=middle;points=[]" parent="1" vertex="1">
          <mxGeometry x="410.00000000000006" y="199.99999999999997" width="30" height="19.999999999999886" as="geometry" />
        </mxCell>
        <mxCell id="DOGktHh-hTqbdm5BC6vs-281" value="" style="edgeStyle=none;endArrow=none;strokeWidth=2" parent="1" edge="1">
          <mxGeometry width="100" height="100" relative="1" as="geometry">
            <mxPoint x="353" y="329.85999999999996" as="sourcePoint" />
            <mxPoint x="413" y="329.85999999999996" as="targetPoint" />
          </mxGeometry>
        </mxCell>
        <mxCell id="DOGktHh-hTqbdm5BC6vs-282" value="Hauteur/Profondeur" style="text;spacingTop=-5;fontSize=8;align=center;verticalAlign=middle;points=[]" parent="1" vertex="1">
          <mxGeometry x="419.58333333333337" y="310.0022222222224" width="30" height="19.999999999999886" as="geometry" />
        </mxCell>
        <mxCell id="DOGktHh-hTqbdm5BC6vs-283" value="" style="edgeStyle=none;endArrow=none;strokeWidth=2" parent="1" edge="1">
          <mxGeometry width="100" height="100" relative="1" as="geometry">
            <mxPoint x="290" y="349.85999999999996" as="sourcePoint" />
            <mxPoint x="350" y="349.85999999999996" as="targetPoint" />
          </mxGeometry>
        </mxCell>
        <mxCell id="DOGktHh-hTqbdm5BC6vs-284" value="&lt;font style=&quot;font-size: 9px;&quot;&gt;Eau&lt;/font&gt;" style="text;html=1;align=center;verticalAlign=middle;resizable=0;points=[];autosize=1;strokeColor=none;fillColor=none;" parent="1" vertex="1">
          <mxGeometry x="250" y="336.95" width="40" height="30" as="geometry" />
        </mxCell>
      </root>
    </mxGraphModel>
  </diagram>
</mxfile>
